# xmcd
#
# Track frame offsets:
#	150
#	20034
#	34059
#	48859
#	69611
#	85568
#	99053
#	116356
#	131390
#	151368
#	165076
#
# Disc length: 2453 seconds
# Revision: 0
# Processed by: cddbd v1.5.2PL0 Copyright (c) Steve Scherf et al.
# Submitted via: dBpowerAMP V12.0
#
DISCID=7309930b
DTITLE=Clancy - Drive
DYEAR=2012
DGENRE=Country
TTITLE0=Thankyou for Leavin
TTITLE1=Purple Roses
TTITLE2=Drive
TTITLE3=Old Mates
TTITLE4=You Do The Drinkin'
TTITLE5=Life is Like A Rodeo
TTITLE6=Can I Change My Mind
TTITLE7=Let Em Go
TTITLE8=Going Home Alone
TTITLE9=Leave Him In The Longyard
TTITLE10=A Walk In The Rain
EXTD=
EXTT0=
EXTT1=
EXTT2=
EXTT3=
EXTT4=
EXTT5=
EXTT6=
EXTT7=
EXTT8=
EXTT9=
EXTT10=
PLAYORDER=
